<?xml version="1.0" encoding="utf-8"?><svg viewBox="0 0 22 20" xmlns="http://www.w3.org/2000/svg" xmlns:xlink="http://www.w3.org/1999/xlink"><style>:root>svg{display:none}:root>svg:target{display:block}</style><svg viewBox="0 0 22 20" id="cart" xmlns="http://www.w3.org/2000/svg"><path d="M.814 1.629h2.333L6.47 13.667a.815.815 0 00.787.6h10.214a.814.814 0 00.746-.489l3.717-8.561a.827.827 0 00-.068-.775.811.811 0 00-.678-.366H9.9a.816.816 0 000 1.631h10.04l-3.011 6.929H7.867L4.544.6a.814.814 0 00-.787-.6H.814a.816.816 0 000 1.629zM6.484 20a1.848 1.848 0 10-1.845-1.848A1.849 1.849 0 006.484 20zm11.53 0h.135a1.907 1.907 0 10-.135 0z"/></svg><svg viewBox="0 0 22 18" id="heart" xmlns="http://www.w3.org/2000/svg"><path data-name="Forma 1" class="bcls-1" d="M21.99 5.82a6.21 6.21 0 00-1.849-4.1A5.872 5.872 0 0016 0c-2.311 0-3.948 1.785-4.827 2.745l-.156.169-.083-.094C10.134 1.904 8.458 0 5.996 0a5.874 5.874 0 00-4.139 1.721 6.21 6.21 0 00-1.849 4.1 6.832 6.832 0 001.271 4.338 29.141 29.141 0 004.763 4.747c1.705 1.412 3.95 3.093 4.965 3.093 1.032 0 3.269-1.679 4.965-3.086a29.012 29.012 0 004.746-4.755A6.907 6.907 0 0021.99 5.82zm-2.376 3.61a27.046 27.046 0 01-4.431 4.418c-2.406 2-3.831 2.8-4.172 2.826-.342-.035-1.77-.833-4.188-2.843a27.134 27.134 0 01-4.437-4.4 5.591 5.591 0 01-1.054-3.539A4.807 4.807 0 016 1.322c1.863 0 3.216 1.542 3.943 2.37a1.517 1.517 0 001.059.755 1.721 1.721 0 001.151-.809c.794-.866 2.122-2.316 3.851-2.316a4.807 4.807 0 014.666 4.569 5.529 5.529 0 01-1.056 3.539z"/></svg><svg viewBox="0 0 20 20" id="search" xmlns="http://www.w3.org/2000/svg"><path data-name="Forma 1" class="ccls-1" d="M19.45 16.8l-4.588-4.589a8.819 8.819 0 01-2.651 2.651l4.588 4.588a1.874 1.874 0 102.651-2.65zM15 7.5A7.5 7.5 0 107.5 15 7.5 7.5 0 0015 7.5zm-7.5 5.625A5.626 5.626 0 1113.125 7.5 5.631 5.631 0 017.5 13.124zM3.125 7.5h1.25A3.128 3.128 0 017.5 4.375V3.124A4.381 4.381 0 003.125 7.5z"/></svg></svg>